<svg width="25" height="25" viewBox="0 0 25 25" fill="none" xmlns="http://www.w3.org/2000/svg">
<path d="M12.5 23.25C6.57 23.25 1.75 18.43 1.75 12.5C1.75 6.57 6.57 1.75 12.5 1.75C18.43 1.75 23.25 6.57 23.25 12.5C23.25 18.43 18.43 23.25 12.5 23.25ZM12.5 3.25C7.4 3.25 3.25 7.4 3.25 12.5C3.25 17.6 7.4 21.75 12.5 21.75C17.6 21.75 21.75 17.6 21.75 12.5C21.75 7.4 17.6 3.25 12.5 3.25Z" fill="white"/>
<path d="M11.0795 16.0801C10.8795 16.0801 10.6895 16.0001 10.5495 15.8601L7.71945 13.0301C7.42945 12.7401 7.42945 12.2601 7.71945 11.9701C8.00945 11.6801 8.48945 11.6801 8.77945 11.9701L11.0795 14.2701L16.2195 9.1301C16.5095 8.8401 16.9895 8.8401 17.2795 9.1301C17.5695 9.4201 17.5695 9.9001 17.2795 10.1901L11.6095 15.8601C11.4695 16.0001 11.2795 16.0801 11.0795 16.0801Z" fill="white"/>
</svg>
