<svg width="32" height="32" viewBox="0 0 32 32" fill="none" xmlns="http://www.w3.org/2000/svg">
<path d="M16 13C15.8667 13 15.7467 12.9733 15.6133 12.92C15.24 12.7733 15 12.4 15 12V2.66666C15 2.11999 15.4533 1.66666 16 1.66666C16.5467 1.66666 17 2.11999 17 2.66666V9.58666L17.96 8.62666C18.3467 8.23999 18.9867 8.23999 19.3733 8.62666C19.76 9.01332 19.76 9.65332 19.3733 10.04L16.7067 12.7067C16.52 12.8933 16.2667 13 16 13Z" fill="white"/>
<path d="M15.9993 12.9999C15.746 12.9999 15.4927 12.9066 15.2927 12.7066L12.6259 10.0399C12.2393 9.65324 12.2393 9.01325 12.6259 8.62658C13.0126 8.23991 13.6527 8.23991 14.0393 8.62658L16.706 11.2932C17.0927 11.6799 17.0927 12.3199 16.706 12.7066C16.506 12.9066 16.2527 12.9999 15.9993 12.9999Z" fill="white"/>
<path d="M18.3473 23.6667H13.6407C12.2406 23.6667 10.9873 22.8933 10.3606 21.64L8.80062 18.52C8.74729 18.4 8.62729 18.3333 8.50729 18.3333H2.64062C2.09396 18.3333 1.64062 17.88 1.64062 17.3333C1.64062 16.7867 2.09396 16.3333 2.64062 16.3333H8.52063C9.41396 16.3333 10.214 16.8267 10.614 17.6267L12.174 20.7467C12.454 21.32 13.0273 21.6667 13.6673 21.6667H18.374C19.014 21.6667 19.5873 21.32 19.8673 20.7467L21.4273 17.6267C21.8273 16.8267 22.6273 16.3333 23.5207 16.3333H29.334C29.8807 16.3333 30.334 16.7867 30.334 17.3333C30.334 17.88 29.8807 18.3333 29.334 18.3333H23.5207C23.3873 18.3333 23.2807 18.4 23.2273 18.52L21.6673 21.64C21.0007 22.8933 19.7473 23.6667 18.3473 23.6667Z" fill="white"/>
<path d="M20 30.3332H12C4.75996 30.3332 1.66663 27.2399 1.66663 19.9999V14.6665C1.66663 8.41325 3.98663 5.27991 9.18663 4.51991C9.74663 4.43991 10.24 4.81325 10.32 5.35991C10.4 5.90658 10.0266 6.41325 9.47996 6.49325C5.29329 7.10658 3.66663 9.39991 3.66663 14.6665V19.9999C3.66663 26.1465 5.85329 28.3332 12 28.3332H20C26.1466 28.3332 28.3333 26.1465 28.3333 19.9999V14.6665C28.3333 9.39991 26.7066 7.10658 22.52 6.49325C21.9733 6.41325 21.6 5.90658 21.68 5.35991C21.76 4.81325 22.2666 4.43991 22.8133 4.51991C28.0133 5.27991 30.3333 8.41325 30.3333 14.6665V19.9999C30.3333 27.2399 27.24 30.3332 20 30.3332Z" fill="white"/>
</svg>
