<svg width="16" height="16" viewBox="0 0 16 16" fill="none" xmlns="http://www.w3.org/2000/svg">
<path d="M13.9998 4.48666C13.9864 4.48666 13.9664 4.48666 13.9464 4.48666C10.4198 4.13333 6.89978 3.99999 3.41309 4.35333L2.05309 4.48666C1.77309 4.51333 1.52643 4.31333 1.49976 4.03333C1.47309 3.75333 1.67309 3.51333 1.94643 3.48666L3.30643 3.35333C6.85311 2.99333 10.4464 3.13333 14.0464 3.48666C14.3198 3.51333 14.5198 3.75999 14.4931 4.03333C14.4731 4.29333 14.2531 4.48666 13.9998 4.48666Z" fill="white"/>
<path d="M5.66718 3.81333C5.64052 3.81333 5.61385 3.81333 5.58052 3.80666C5.31385 3.75999 5.12718 3.49999 5.17385 3.23333L5.32052 2.35999C5.42718 1.71999 5.57385 0.833328 7.12716 0.833328H8.87382C10.4338 0.833328 10.5805 1.75333 10.6805 2.36666L10.8272 3.23333C10.8738 3.50666 10.6872 3.76666 10.4205 3.80666C10.1472 3.85333 9.88716 3.66666 9.84716 3.39999L9.70049 2.53333C9.60716 1.95333 9.58716 1.83999 8.88049 1.83999H7.13382C6.42718 1.83999 6.41385 1.93333 6.31385 2.52666L6.16052 3.39333C6.12052 3.64 5.90718 3.81333 5.66718 3.81333Z" fill="white"/>
<path d="M10.1403 15.1667H5.86028C3.53361 15.1667 3.44028 13.8801 3.36694 12.8401L2.93361 6.12671C2.91361 5.85338 3.12694 5.61338 3.40028 5.59338C3.68028 5.58005 3.91361 5.78672 3.93361 6.06005L4.36694 12.7734C4.44028 13.7867 4.46694 14.1667 5.86028 14.1667H10.1403C11.5403 14.1667 11.567 13.7867 11.6336 12.7734L12.067 6.06005C12.087 5.78672 12.327 5.58005 12.6003 5.59338C12.8736 5.61338 13.087 5.84671 13.067 6.12671L12.6336 12.8401C12.5603 13.8801 12.467 15.1667 10.1403 15.1667Z" fill="white"/>
<path d="M9.10673 11.5H6.88673C6.61339 11.5 6.38672 11.2733 6.38672 11C6.38672 10.7267 6.61339 10.5 6.88673 10.5H9.10673C9.38007 10.5 9.60673 10.7267 9.60673 11C9.60673 11.2733 9.38007 11.5 9.10673 11.5Z" fill="white"/>
<path d="M9.66665 8.83333H6.33331C6.05998 8.83333 5.83331 8.60666 5.83331 8.33333C5.83331 8.05999 6.05998 7.83333 6.33331 7.83333H9.66665C9.93998 7.83333 10.1666 8.05999 10.1666 8.33333C10.1666 8.60666 9.93998 8.83333 9.66665 8.83333Z" fill="white"/>
</svg>
